#!OML:ASF E:\Steps\Project 1\Capture day 1\Session 2\Subject.ASF
:FULLY-SPECIFIED
:DEGREES
255
root 12.1988 17.413 18.0884 -153.938 1.94133 184.087
lowerback -18.4404 -2.4067 -7.76519
upperback 2.57198 -1.15317 -1.12907
thorax 13.5035 -1.0269 2.80909
lowerneck -1.89898 -1.60975 -0.988392
upperneck 24.0494 -1.2733 5.76805
head 7.73582 0.567274 2.09041
rclavicle -3.18055e-015 -4.13472e-014
rhumerus -40.8643 -15.1955 -71.7515
rradius 40.0319
rwrist -4.01611
rhand -6.62828 -51.7022
rfingers 7.12502
rthumb 19.2283 -80.7716
lclavicle -3.18055e-015 -4.13472e-014
lhumerus -29.237 2.1414 76.716
lradius 37.3455
lwrist 4.65905
lhand -23.9374 -11.0299
lfingers 7.12502
lthumb 2.53783 18.9347
rfemur -48.4274 12.0923 8.65821
rtibia 74.8652
rfoot -29.6611 -11.925
rtoes -31.0442
lfemur -30.2065 -10.3012 -12.6608
ltibia 13.135
lfoot -7.08446 4.77161
ltoes -40.4043
256
root 12.1616 17.3889 18.0396 -153.81 2.27028 184.403
lowerback -19.1181 -2.28515 -7.25316
upperback 2.59553 -1.04714 -1.1431
thorax 13.9033 -0.950555 2.52275
lowerneck -1.91665 -1.58039 -0.883923
upperneck 24.2804 -1.17702 5.57681
head 7.81186 0.620301 2.0216
rclavicle 1.11319e-014 -4.92986e-014
rhumerus -41.0143 -15.1537 -71.6228
rradius 39.8885
rwrist -3.52667
rhand -6.38245 -51.7661
rfingers 7.12502
rthumb 19.4647 -80.8118
lclavicle 1.11319e-014 -4.92986e-014
lhumerus -29.2302 2.38598 76.6913
lradius 36.8313
lwrist 4.59738
lhand -24.1751 -10.7283
lfingers 7.12502
lthumb 2.30824 19.2389
rfemur -48.7995 12.3579 8.89964
rtibia 75.1892
rfoot -29.8067 -11.939
rtoes -30.6636
lfemur -29.7301 -10.4467 -12.6118
ltibia 12.6558
lfoot -7.20935 5.24556
ltoes -40.0464
257
root 12.1363 17.385 18.0282 -153.747 2.45631 184.493
lowerback -19.2122 -2.27569 -7.11679
upperback 2.57112 -1.05339 -1.17897
thorax 13.9258 -0.939968 2.40194
lowerneck -1.74404 -1.51878 -0.831942
upperneck 24.2696 -1.07035 5.53658
head 7.77292 0.674162 2.00642
rclavicle 1.27222e-014 3.97569e-014
rhumerus -41.1785 -15.0844 -71.619
rradius 39.8499
rwrist -3.45677
rhand -6.36718 -51.7474
rfingers 7.12502
rthumb 19.4793 -80.7916
lclavicle 1.27222e-014 3.97569e-014
lhumerus -29.2022 2.70333 76.5789
lradius 36.326
lwrist 4.6037
lhand -24.1072 -10.691
lfingers 7.12502
lthumb 2.37387 19.2756
rfemur -49.4256 12.4081 9.05315
rtibia 75.8466
rfoot -29.9393 -12.0957
rtoes -30.0668
lfemur -29.6683 -10.5208 -12.6393
ltibia 12.4918
lfoot -7.16311 5.51107
ltoes -40.2632
258
root 12.1179 17.3932 18.0365 -153.814 2.6137 184.455
lowerback -18.8885 -2.34508 -7.31345
upperback 2.53815 -1.13583 -1.14286
thorax 13.7109 -0.988892 2.53541
lowerneck -1.50374 -1.44011 -0.987086
upperneck 24.1178 -0.966583 5.65029
head 7.67581 0.71223 2.07364
rclavicle 1.82882e-014 4.6118e-014
rhumerus -41.3436 -14.588 -71.7635
rradius 40.0198
rwrist -4.09999
rhand -7.34865 -51.6651
rfingers 7.12502
rthumb 18.5355 -80.8021
lclavicle 1.82882e-014 4.6118e-014
lhumerus -29.2403 3.2066 76.5358
lradius 35.8668
lwrist 4.51562
lhand -23.9989 -10.4297
lfingers 7.12502
lthumb 2.47838 19.5357
rfemur -50.0317 12.3857 9.19069
rtibia 76.53
rfoot -29.7835 -12.311
rtoes -28.6493
lfemur -29.723 -10.4006 -12.7585
ltibia 12.6103
lfoot -7.18158 5.45819
ltoes -39.6032
259
root 12.1071 17.4141 18.0694 -153.906 2.65275 184.441
lowerback -18.2157 -2.43292 -7.54495
upperback 2.50875 -1.27568 -1.08264
thorax 13.3026 -1.06381 2.70578
lowerneck -1.25329 -1.20181 -1.04733
upperneck 23.7802 -0.647772 5.67275
head 7.50634 0.841149 2.10291
rclavicle -1.35174e-014 -6.20208e-014
rhumerus -41.4205 -14.6397 -71.6386
rradius 40.0045
rwrist -3.07986
rhand -6.47327 -51.9725
rfingers 7.12502
rthumb 19.3774 -81.027
lclavicle -1.35174e-014 -6.20208e-014
lhumerus -29.1458 3.58273 76.4843
lradius 35.3976
lwrist 4.39485
lhand -24.0656 -10.2448
lfingers 7.12502
lthumb 2.41399 19.7213
rfemur -50.7483 12.228 9.51329
rtibia 77.2993
rfoot -29.403 -12.6286
rtoes -27.0363
lfemur -30.0312 -10.0063 -12.7819
ltibia 13.0291
lfoot -7.23301 5.03926
ltoes -37.8929
260
root 12.0883 17.4147 18.0812 -153.703 2.69744 184.436
lowerback -18.2254 -2.53971 -7.52676
upperback 2.47875 -1.41953 -1.08953
thorax 13.2885 -1.12615 2.64515
lowerneck -1.20909 -1.0674 -0.870501
upperneck 23.6698 -0.447384 5.46822
head 7.45421 0.925018 2.01449
rclavicle -2.54444e-014 -4.6118e-014
rhumerus -41.4064 -14.6796 -71.7047
rradius 39.9964
rwrist -2.55747
rhand -6.408 -52.1155
rfingers 7.12502
rthumb 19.4401 -81.1637
lclavicle -2.54444e-014 -4.6118e-014
lhumerus -29.1509 3.81483 76.3782
lradius 35.0363
lwrist 4.38166
lhand -24.3132 -10.292
lfingers 7.12502
lthumb 2.17492 19.6767
rfemur -51.6754 11.9098 9.78141
rtibia 77.8752
rfoot -29.0937 -12.8255
rtoes -26.7625
lfemur -30.3633 -9.88868 -12.8465
ltibia 13.1245
lfoot -7.19597 4.92997
ltoes -36.9147
261
root 12.0602 17.4086 18.0613 -153.73 3.02272 184.607
lowerback -18.5601 -2.5788 -7.31512
upperback 2.43962 -1.4981 -1.04507
thorax 13.4419 -1.15204 2.54481
lowerneck -0.798101 -0.967178 -0.988154
upperneck 23.7553 -0.228211 5.36375
head 7.40215 1.02216 2.01504
rclavicle -3.02153e-014 -9.54166e-015
rhumerus -41.6354 -14.1163 -71.8172
rradius 40.0642
rwrist -2.80945
rhand -7.0244 -52.0357
rfingers 7.12502
rthumb 18.8474 -81.1426
lclavicle -3.02153e-014 -9.54166e-015
lhumerus -29.8255 4.10897 76.3076
lradius 34.9278
lwrist 4.51262
lhand -24.5773 -10.0732
lfingers 7.12502
lthumb 1.91981 19.8979
rfemur -52.2433 12.0694 10.1016
rtibia 78.3559
rfoot -29.1604 -12.5765
rtoes -25.5817
lfemur -29.9535 -10.0166 -12.8304
ltibia 12.6797
lfoot -7.15337 5.39813
ltoes -36.8351
